HIERARCHY
ROOT Pelvis
{
	OFFSET 0.000000 0.941512 0.000000
	CHANNELS 6 Xposition Yposition Zposition Zrotation Yrotation Xrotation 
	JOINT Pelvis_L_Hip
	{
		OFFSET 0.000000 0.000000 0.000000
		CHANNELS 3 Zrotation Yrotation Xrotation
		JOINT L_Hip
		{
			OFFSET 0.062321 -0.080322 -0.016990
			CHANNELS 3 Zrotation Yrotation Xrotation
			JOINT L_Knee
			{
				OFFSET 0.093051 -0.381305 -0.029784
				CHANNELS 3 Zrotation Yrotation Xrotation
				JOINT L_Ankle
				{
					OFFSET -0.010371 -0.431000 -0.033614
					CHANNELS 3 Zrotation Yrotation Xrotation
					End Site #name: L_Foot
					{
						OFFSET 0.069299 -0.038670 0.119418
					}
				}
			}
		}
	}
	JOINT Pelvis_R_Hip
	{
		OFFSET 0.000000 0.000000 0.000000
		CHANNELS 3 Zrotation Yrotation Xrotation
		JOINT R_Hip
		{
			OFFSET -0.055334 -0.094904 -0.002373
			CHANNELS 3 Zrotation Yrotation Xrotation
			JOINT R_Knee
			{
				OFFSET -0.064207 -0.384370 -0.019592
				CHANNELS 3 Zrotation Yrotation Xrotation
				JOINT R_Ankle
				{
					OFFSET 0.025418 -0.419734 -0.065953
					CHANNELS 3 Zrotation Yrotation Xrotation
					End Site #name: R_Foot
					{
						OFFSET -0.057233 -0.039888 0.132134
					}
				}
			}
		}
	}
	JOINT Pelvis_Spine1
	{
		OFFSET 0.000000 0.000000 0.000000
		CHANNELS 3 Zrotation Yrotation Xrotation
		JOINT Spine1
		{
			OFFSET -0.005562 0.124093 -0.043360
			CHANNELS 3 Zrotation Yrotation Xrotation
			JOINT Spine2
			{
				OFFSET 0.012244 0.139499 0.029894
				CHANNELS 3 Zrotation Yrotation Xrotation
				JOINT Spine3
				{
					OFFSET -0.002556 0.056561 0.009225
					CHANNELS 3 Zrotation Yrotation Xrotation
					JOINT Spine3_Neck
					{
						OFFSET 0.000000 0.000000 0.000000
						CHANNELS 3 Zrotation Yrotation Xrotation
						JOINT Neck
						{
							OFFSET -0.005205 0.217920 -0.024551
							CHANNELS 3 Zrotation Yrotation Xrotation
							End Site #name: Head
							{
								OFFSET 0.002365 0.091850 0.046637
							}
						}
					}
					JOINT Spine3_L_Collar
					{
						OFFSET 0.000000 0.000000 0.000000
						CHANNELS 3 Zrotation Yrotation Xrotation
						JOINT L_Collar
						{
							OFFSET 0.072225 0.116603 -0.009480
							CHANNELS 3 Zrotation Yrotation Xrotation
							JOINT L_Shoulder
							{
								OFFSET 0.115937 -0.058643 -0.021018
								CHANNELS 3 Zrotation Yrotation Xrotation
								JOINT L_Elbow
								{
									OFFSET 0.021994 -0.254722 -0.024492
									CHANNELS 3 Zrotation Yrotation Xrotation
									End Site #name: L_Wrist
									{
										OFFSET 0.048810 -0.240214 0.103329
									}
								}
							}
						}
					}
					JOINT Spine3_R_Collar
					{
						OFFSET 0.000000 0.000000 0.000000
						CHANNELS 3 Zrotation Yrotation Xrotation
						JOINT R_Collar
						{
							OFFSET -0.073372 0.120704 -0.024611
							CHANNELS 3 Zrotation Yrotation Xrotation
							JOINT R_Shoulder
							{
								OFFSET -0.108089 -0.054969 -0.020504
								CHANNELS 3 Zrotation Yrotation Xrotation
								JOINT R_Elbow
								{
									OFFSET -0.033684 -0.260739 0.009889
									CHANNELS 3 Zrotation Yrotation Xrotation
									End Site #name: R_Wrist
									{
										OFFSET -0.067980 -0.232763 0.118463
									}
								}
							}
						}
					}
				}
			}
		}
	}
}
MOTION
Frames: 17
Frame Time: 0.041667
-0.003777 0.947549 -0.003273 -3.415845 -1.578127 2.796610 0.000000 0.000000 0.000000 0.063632 -0.753487 -3.093913 5.483009 -0.436998 0.010167 -4.406822 -8.973836 2.580816 0.000000 0.000000 0.000000 2.625141 0.164992 -1.652576 -2.932945 0.132663 -3.751708 2.582909 2.111783 4.210483 0.000000 0.000000 0.000000 5.127250 -0.169619 -7.185052 0.627389 -0.125143 -0.602166 -1.376119 -2.350833 1.404648 0.000000 0.000000 0.000000 -2.506067 1.327467 3.251679 0.000000 0.000000 0.000000 25.198190 -18.525212 -10.964454 -19.382432 -0.434303 -9.253985 -37.205746 -34.069851 -23.719193 0.000000 0.000000 0.000000 -35.292748 7.385616 1.813513 -1.271815 0.976420 -8.705995 -54.288176 -42.016411 -46.349770 
-0.002660 0.947531 -0.004015 -3.442808 -1.462324 2.694409 0.000000 0.000000 0.000000 0.049615 -0.768021 -3.158279 5.542913 -0.459170 0.256151 -4.426820 -9.028381 2.581599 0.000000 0.000000 0.000000 2.666771 0.169881 -1.683129 -2.966030 0.155904 -3.534770 2.446393 1.992714 4.008761 0.000000 0.000000 0.000000 5.458766 -0.228068 -7.120185 0.734102 -0.138018 -0.499872 -1.801078 -2.652414 1.315326 0.000000 0.000000 0.000000 -2.652724 1.408762 3.233209 0.000000 0.000000 0.000000 24.712137 -20.292844 -12.510726 -19.703707 -0.445760 -9.335596 -36.778915 -24.281715 -10.516837 0.000000 0.000000 0.000000 -35.356085 7.782542 1.466490 -1.362480 0.988750 -8.897130 -54.721203 -42.134816 -45.702666 
-0.002231 0.947740 -0.004562 -3.446190 -1.534357 2.663771 0.000000 0.000000 0.000000 0.021883 -0.768207 -3.164405 5.592451 -0.469048 0.334675 -4.440251 -8.940582 2.647565 0.000000 0.000000 0.000000 2.688789 0.175218 -1.716055 -2.991843 0.163077 -3.486151 2.440732 2.063005 3.943249 0.000000 0.000000 0.000000 5.658818 -0.274807 -7.010464 0.734895 -0.137071 -0.472769 -2.019245 -2.843060 1.284906 0.000000 0.000000 0.000000 -2.799852 1.487828 3.034947 0.000000 0.000000 0.000000 24.551579 -20.806229 -12.980432 -19.206415 -0.356710 -8.964302 -35.373879 -20.680227 -6.421482 0.000000 0.000000 0.000000 -35.303134 7.884353 1.410055 -1.766702 0.962826 -9.073043 -54.627748 -42.057257 -45.723258 
-0.002619 0.947973 -0.004774 -3.480893 -1.714217 2.729702 0.000000 0.000000 0.000000 0.065292 -0.772900 -3.173688 5.618554 -0.467976 0.278289 -4.422473 -8.750623 2.719161 0.000000 0.000000 0.000000 2.747548 0.184521 -1.781516 -2.979603 0.150242 -3.609491 2.568483 2.271811 4.060115 0.000000 0.000000 0.000000 5.548719 -0.258009 -7.019938 0.734158 -0.137915 -0.501382 -1.823238 -2.729133 1.281660 0.000000 0.000000 0.000000 -2.871698 1.524358 2.867101 0.000000 0.000000 0.000000 24.743170 -19.940115 -12.241741 -18.063582 -0.255638 -8.446234 -35.748360 -23.176204 -9.898280 0.000000 0.000000 0.000000 -35.205690 7.712253 1.577718 -2.360955 0.860688 -8.757852 -54.339860 -41.932885 -46.032449 
-0.003542 0.948090 -0.004767 -3.516756 -1.824620 2.793865 0.000000 0.000000 0.000000 0.166539 -0.765101 -3.119395 5.586681 -0.452749 0.094605 -4.445118 -8.645046 2.811339 0.000000 0.000000 0.000000 2.823901 0.180215 -1.778499 -2.961513 0.132499 -3.785242 2.686559 2.415342 4.204333 0.000000 0.000000 0.000000 5.269524 -0.202175 -7.117014 0.665466 -0.126178 -0.478936 -1.484331 -2.510036 1.279516 0.000000 0.000000 0.000000 -2.701705 1.430280 2.823532 0.000000 0.000000 0.000000 24.884589 -18.575480 -11.039134 -16.958394 -0.199961 -8.073540 -35.025796 -29.000392 -19.221052 0.000000 0.000000 0.000000 -35.105007 7.377965 1.870487 -2.606245 0.793873 -8.384289 -54.114804 -41.836582 -46.293440 
-0.004559 0.948140 -0.004696 -3.480107 -1.808400 2.780054 0.000000 0.000000 0.000000 0.225349 -0.729441 -2.957198 5.490361 -0.424534 -0.185667 -4.529640 -8.704135 2.914432 0.000000 0.000000 0.000000 2.833397 0.159181 -1.671695 -2.967387 0.122621 -3.908433 2.734837 2.406869 4.313335 0.000000 0.000000 0.000000 5.020439 -0.154911 -7.179772 0.454798 -0.090264 -0.410831 -1.280002 -2.391454 1.300704 0.000000 0.000000 0.000000 -2.351714 1.239005 2.817313 0.000000 0.000000 0.000000 24.849767 -17.276859 -9.886142 -16.647709 -0.204055 -8.042915 -30.086163 -34.949092 -33.452337 0.000000 0.000000 0.000000 -34.986428 6.976702 2.220487 -2.317794 0.833395 -8.460642 -53.945713 -41.756874 -46.484420 
-0.005371 0.948171 -0.004677 -3.399372 -1.734515 2.736953 0.000000 0.000000 0.000000 0.219992 -0.695032 -2.814631 5.394092 -0.400532 -0.410022 -4.624197 -8.830275 2.997633 0.000000 0.000000 0.000000 2.776585 0.133039 -1.521502 -2.970994 0.113467 -4.024061 2.747656 2.322509 4.403972 0.000000 0.000000 0.000000 4.912383 -0.136339 -7.188300 0.146020 -0.041619 -0.414498 -1.193310 -2.352128 1.389294 0.000000 0.000000 0.000000 -2.064844 1.082021 2.761435 0.000000 0.000000 0.000000 24.777045 -16.250666 -8.980008 -17.479505 -0.350347 -8.753727 -20.917075 -38.209776 -50.741246 0.000000 0.000000 0.000000 -34.926639 6.623468 2.537900 -1.759292 0.939302 -8.859114 -53.788463 -41.697887 -46.698900 
-0.005981 0.948157 -0.004636 -3.334701 -1.701686 2.746051 0.000000 0.000000 0.000000 0.202601 -0.686597 -2.782867 5.330547 -0.388035 -0.515241 -4.676160 -8.898757 3.044600 0.000000 0.000000 0.000000 2.719448 0.115461 -1.417127 -2.971686 0.102299 -4.155236 2.770643 2.271103 4.490689 0.000000 0.000000 0.000000 4.924205 -0.128671 -7.260387 -0.161118 0.004704 -0.464139 -1.106815 -2.306276 1.505140 0.000000 0.000000 0.000000 -1.973481 1.032049 2.728623 0.000000 0.000000 0.000000 24.804576 -15.530171 -8.349766 -19.071931 -0.709125 -10.304746 -10.887875 -37.725727 -66.962935 0.000000 0.000000 0.000000 -35.000683 6.420481 2.740689 -1.219737 1.048830 -9.274571 -53.708573 -41.694763 -46.847941 
-0.006469 0.948080 -0.004493 -3.298132 -1.725506 2.784078 0.000000 0.000000 0.000000 0.208787 -0.687198 -2.784091 5.278188 -0.380474 -0.571788 -4.687471 -8.906771 3.059466 0.000000 0.000000 0.000000 2.681969 0.105548 -1.357982 -2.972788 0.093047 -4.262490 2.802170 2.274508 4.553501 0.000000 0.000000 0.000000 5.004606 -0.119654 -7.425308 -0.392651 0.042267 -0.443533 -1.026013 -2.235321 1.569794 0.000000 0.000000 0.000000 -1.988194 1.040191 2.753245 0.000000 0.000000 0.000000 24.949649 -15.068519 -7.947909 -20.465761 -1.185710 -12.124449 -3.441572 -35.086649 -78.528359 0.000000 0.000000 0.000000 -35.165736 6.389329 2.797558 -0.792515 1.136112 -9.585787 -53.793255 -41.761896 -46.804684 
-0.006740 0.948001 -0.004317 -3.273672 -1.721307 2.750953 0.000000 0.000000 0.000000 0.202358 -0.674944 -2.733943 5.262796 -0.377398 -0.595966 -4.700948 -8.937398 3.064996 0.000000 0.000000 0.000000 2.659683 0.089931 -1.270725 -2.975019 0.088756 -4.315781 2.813369 2.289984 4.566644 0.000000 0.000000 0.000000 5.031963 -0.105150 -7.564146 -0.480055 0.059731 -0.368968 -0.957914 -2.154044 1.581975 0.000000 0.000000 0.000000 -2.001124 1.047246 2.826615 0.000000 0.000000 0.000000 25.175725 -14.822073 -7.724729 -20.879611 -1.541324 -13.410696 0.421332 -32.793973 -84.592095 0.000000 0.000000 0.000000 -35.295222 6.459716 2.735454 -0.571055 1.173800 -9.677381 -53.970721 -41.839003 -46.596806 
-0.006907 0.947915 -0.004149 -3.264042 -1.673583 2.687532 0.000000 0.000000 0.000000 0.207069 -0.659447 -2.669404 5.265553 -0.377272 -0.601982 -4.725896 -9.003249 3.069461 0.000000 0.000000 0.000000 2.654679 0.073352 -1.180871 -2.972503 0.088182 -4.321681 2.800613 2.270799 4.556148 0.000000 0.000000 0.000000 4.975296 -0.080212 -7.681537 -0.409874 0.051720 -0.304244 -0.891280 -2.074951 1.594715 0.000000 0.000000 0.000000 -2.019291 1.057333 2.968332 0.000000 0.000000 0.000000 25.586876 -14.675359 -7.580839 -20.484668 -1.618615 -13.712842 1.199146 -32.458040 -86.054946 0.000000 0.000000 0.000000 -35.407492 6.524515 2.665390 -0.490695 1.178825 -9.639791 -54.077314 -41.872229 -46.446790 
-0.007088 0.947780 -0.004022 -3.261930 -1.616143 2.646098 0.000000 0.000000 0.000000 0.216220 -0.653851 -2.644578 5.272897 -0.377751 -0.602548 -4.752856 -9.074460 3.074434 0.000000 0.000000 0.000000 2.654009 0.064031 -1.130385 -2.956620 0.087170 -4.312690 2.772924 2.217654 4.538185 0.000000 0.000000 0.000000 4.897603 -0.056007 -7.771410 -0.265783 0.029177 -0.295333 -0.833858 -2.003149 1.625521 0.000000 0.000000 0.000000 -2.075268 1.088256 3.128785 0.000000 0.000000 0.000000 26.041368 -14.558704 -7.460462 -19.778826 -1.474197 -13.212438 0.074735 -33.606399 -84.669992 0.000000 0.000000 0.000000 -35.487406 6.542866 2.634311 -0.501534 1.171915 -9.593997 -54.051875 -41.854737 -46.472440 
-0.007068 0.947712 -0.004050 -3.261584 -1.585473 2.619473 0.000000 0.000000 0.000000 0.202345 -0.652647 -2.641820 5.294199 -0.379535 -0.589660 -4.755341 -9.103692 3.062760 0.000000 0.000000 0.000000 2.650275 0.058300 -1.098885 -2.947851 0.084723 -4.331386 2.766213 2.199242 4.538927 0.000000 0.000000 0.000000 4.859268 -0.042802 -7.825395 -0.177547 0.017712 -0.238929 -0.777608 -1.938027 1.632716 0.000000 0.000000 0.000000 -2.119335 1.112294 3.215926 0.000000 0.000000 0.000000 26.250326 -14.438467 -7.340420 -19.174854 -1.264386 -12.436430 -1.166677 -34.569622 -82.919882 0.000000 0.000000 0.000000 -35.532706 6.593920 2.570583 -0.582744 1.145325 -9.456339 -54.007594 -41.857402 -46.566929 
-0.007002 0.947621 -0.004242 -3.259087 -1.587299 2.604287 0.000000 0.000000 0.000000 0.183706 -0.652147 -2.644492 5.313918 -0.381303 -0.589257 -4.751950 -9.103241 3.058017 0.000000 0.000000 0.000000 2.638085 0.056537 -1.085951 -2.943828 0.080114 -4.379486 2.782857 2.216689 4.561795 0.000000 0.000000 0.000000 4.886575 -0.050373 -7.798824 -0.223321 0.026661 -0.204064 -0.718792 -1.861407 1.644818 0.000000 0.000000 0.000000 -2.074590 1.086442 3.149152 0.000000 0.000000 0.000000 26.131873 -14.254027 -7.167963 -18.898347 -1.092230 -11.773779 -1.501463 -34.770220 -82.358504 0.000000 0.000000 0.000000 -35.562260 6.691217 2.461037 -0.605762 1.112875 -9.214816 -53.952525 -41.869116 -46.715361 
-0.007016 0.947520 -0.004522 -3.253113 -1.599796 2.606564 0.000000 0.000000 0.000000 0.160035 -0.653425 -2.655004 5.327258 -0.381517 -0.598188 -4.755608 -9.103008 3.064134 0.000000 0.000000 0.000000 2.623477 0.058772 -1.094411 -2.935688 0.074813 -4.428999 2.801719 2.226188 4.594467 0.000000 0.000000 0.000000 4.940503 -0.067115 -7.734155 -0.338662 0.045827 -0.190077 -0.688535 -1.770613 1.647629 0.000000 0.000000 0.000000 -1.991692 1.039421 3.052889 0.000000 0.000000 0.000000 25.905349 -14.000041 -6.935506 -18.856676 -0.965001 -11.279408 -1.115963 -34.366425 -82.823604 0.000000 0.000000 0.000000 -35.574381 6.772757 2.361887 -0.422097 1.098309 -8.926989 -53.706221 -41.820174 -47.148163 
-0.007040 0.947512 -0.004763 -3.261566 -1.633851 2.593171 0.000000 0.000000 0.000000 0.167355 -0.644404 -2.616388 5.320932 -0.379224 -0.628495 -4.756449 -9.093415 3.070700 0.000000 0.000000 0.000000 2.625003 0.057176 -1.086662 -2.928235 0.072999 -4.438673 2.804062 2.234141 4.591825 0.000000 0.000000 0.000000 5.034737 -0.090139 -7.667463 -0.436371 0.066326 -0.090969 -0.701832 -1.695391 1.590649 0.000000 0.000000 0.000000 -1.989806 1.037572 3.045795 0.000000 0.000000 0.000000 25.752338 -13.696671 -6.665764 -18.786945 -0.764403 -10.480600 -0.375933 -33.627988 -83.665657 0.000000 0.000000 0.000000 -35.558854 6.842119 2.277038 0.065716 1.098804 -8.501283 -52.990348 -41.630060 -48.314189 
-0.007053 0.947545 -0.004964 -3.282352 -1.702953 2.551423 0.000000 0.000000 0.000000 0.178450 -0.633314 -2.566813 5.324850 -0.379744 -0.627222 -4.729725 -9.040618 3.057349 0.000000 0.000000 0.000000 2.635622 0.054460 -1.074808 -2.918278 0.074098 -4.408783 2.815365 2.279025 4.579808 0.000000 0.000000 0.000000 5.165602 -0.120462 -7.590119 -0.514863 0.085540 0.042223 -0.695478 -1.639074 1.550085 0.000000 0.000000 0.000000 -2.075938 1.084288 3.029024 0.000000 0.000000 0.000000 25.573672 -13.259858 -6.290345 -18.405588 -0.395569 -8.991057 0.308924 -32.643403 -84.154185 0.000000 0.000000 0.000000 -35.401969 6.882699 2.204252 0.777777 1.055565 -7.604278 -51.327914 -41.060728 -50.826708 
